HIERARCHY
ROOT Hips
{
 OFFSET 0.000000 0.000000 0.000000
 CHANNELS 6 Xposition Yposition Zposition Yrotation Xrotation Zrotation
 JOINT Chest
 {
  OFFSET 0.000000 9.581000 -0.001100
  CHANNELS 3 Yrotation Xrotation Zrotation
  JOINT Chest2
  {
   OFFSET 0.000000 9.561100 0.002200
   CHANNELS 3 Yrotation Xrotation Zrotation
   JOINT Chest3
   {
    OFFSET 0.000000 9.521100 0.000000
    CHANNELS 3 Yrotation Xrotation Zrotation
    JOINT Chest4
    {
     OFFSET 0.000000 9.511400 0.000000
     CHANNELS 3 Yrotation Xrotation Zrotation
     JOINT Neck
     {
      OFFSET 0.000000 14.375100 0.000000
      CHANNELS 3 Yrotation Xrotation Zrotation
      JOINT Head
      {
       OFFSET 0.000000 8.901200 0.004600
       CHANNELS 3 Yrotation Xrotation Zrotation
       End Site
       {
        OFFSET 0.000000 16.962200 0.002400
       }
      }
     }
     JOINT RightCollar
     {
      OFFSET -2.920100 9.518800 0.000000
      CHANNELS 3 Yrotation Xrotation Zrotation
      JOINT RightShoulder
      {
       OFFSET -13.664500 0.000000 0.000000
       CHANNELS 3 Yrotation Xrotation Zrotation
       JOINT RightElbow
       {
        OFFSET 0.000000 -29.999200 0.000000
        CHANNELS 3 Yrotation Xrotation Zrotation
        JOINT RightWrist
        {
         OFFSET 0.000000 -24.253600 0.000000
         CHANNELS 3 Yrotation Xrotation Zrotation
         End Site
         {
          OFFSET 0.000000 -17.918900 0.000000
         }
        }
       }
      }
     }
     JOINT LeftCollar
     {
      OFFSET 2.920100 9.518800 0.000000
      CHANNELS 3 Yrotation Xrotation Zrotation
      JOINT LeftShoulder
      {
       OFFSET 13.664500 0.000000 0.000000
       CHANNELS 3 Yrotation Xrotation Zrotation
       JOINT LeftElbow
       {
        OFFSET 0.000000 -29.999200 0.000000
        CHANNELS 3 Yrotation Xrotation Zrotation
        JOINT LeftWrist
        {
         OFFSET 0.000000 -24.253600 0.000000
         CHANNELS 3 Yrotation Xrotation Zrotation
         End Site
         {
          OFFSET 0.000000 -17.918900 0.000000
         }
        }
       }
      }
     }
    }
   }
  }
 }
 JOINT RightHip
 {
  OFFSET -7.797300 0.005300 0.000500
  CHANNELS 3 Yrotation Xrotation Zrotation
  JOINT RightKnee
  {
   OFFSET 0.000000 -40.663400 -0.000500
   CHANNELS 3 Yrotation Xrotation Zrotation
   JOINT RightAnkle
   {
    OFFSET 0.000000 -39.523700 -0.000900
    CHANNELS 3 Yrotation Xrotation Zrotation
    JOINT RightToe
    {
     OFFSET 0.000000 -6.418000 14.485300
     CHANNELS 3 Yrotation Xrotation Zrotation
     End Site
     {
      OFFSET 0.000000 -1.465200 6.326400
     }
    }
   }
  }
 }
 JOINT LeftHip
 {
  OFFSET 7.797300 0.005300 0.000500
  CHANNELS 3 Yrotation Xrotation Zrotation
  JOINT LeftKnee
  {
   OFFSET 0.000000 -40.663400 -0.000500
   CHANNELS 3 Yrotation Xrotation Zrotation
   JOINT LeftAnkle
   {
    OFFSET 0.000000 -39.523700 -0.000900
    CHANNELS 3 Yrotation Xrotation Zrotation
    JOINT LeftToe
    {
     OFFSET 0.000000 -6.418000 14.485300
     CHANNELS 3 Yrotation Xrotation Zrotation
     End Site
     {
      OFFSET 0.000000 -1.465200 6.326400
     }
    }
   }
  }
 }
}
MOTION
Frames: 12
Frame Time: 0.008333
0.000000 86.422400 0.000000 0.000000 -5.767877 0.000000 0.000000 11.653817 0.000000 0.000000 -5.885947 0.000000 0.000000 -0.000000 0.000000 0.000000 -0.000000 0.000000 0.000000 12.528835 0.000000 0.000000 0.711642 0.000000 0.000000 -0.000000 0.000000 0.000000 0.000000 -90.000000 0.000000 -2.309062 0.000000 0.000000 2.309062 0.000000 0.000000 -0.000000 0.000000 0.000000 -0.000000 90.000000 0.000000 -2.309062 0.000000 0.000000 2.309062 0.000000 0.000000 8.520406 0.000000 0.000000 1.905762 0.000000 -0.000000 -4.658285 0.000000 0.000000 -0.000000 0.000000 0.000000 8.520406 0.000000 0.000000 1.905762 0.000000 -0.000000 -4.658285 0.000000 0.000000 -0.000000 0.000000
-15.189115 126.893362 15.520072 175.665639 -48.999008 -5.976409 3.017472 27.829136 4.458979 0.367464 5.032570 0.671860 0.607402 7.924135 1.075763 2.222608 22.495594 3.402979 4.982569 17.349665 -2.623970 5.972185 -7.311992 -3.998124 1.359784 1.933740 2.040535 3.748706 -11.016517 -16.216503 -132.085297 -71.659768 175.465388 16.619362 11.575282 2.758995 -10.317728 -1.183394 0.874507 -7.424826 -11.988847 12.888451 53.906221 -62.065628 -97.867681 -2.928634 -9.342151 2.771849 -16.832498 -9.065471 4.535306 8.825792 75.961403 24.354689 23.393670 -19.031282 15.609106 0.005072 -0.005013 0.002247 10.245530 -16.235592 -4.014140 8.770147 67.094573 -3.690207 5.562015 -5.801569 15.484031 0.000867 -0.002244 0.000384
-15.189691 126.891917 15.520480 175.657540 -48.980122 -5.962903 3.012852 27.827410 4.455140 0.367497 5.040796 0.673751 0.607150 7.914568 1.071984 2.216844 22.517740 3.413912 5.020229 17.271602 -2.607352 6.005387 -7.394835 -3.982265 1.332855 1.868690 1.978984 3.726564 -10.857058 -16.259209 -132.239248 -71.581966 175.638075 16.742234 11.702145 2.916901 -10.321711 -1.244575 0.917142 -7.388761 -11.917076 12.946388 54.006784 -62.014886 -98.009276 -2.971025 -9.022454 2.551070 -16.828248 -9.085190 4.533559 8.817654 75.956254 24.346913 23.397749 -19.028252 15.608601 0.002817 -0.004707 0.001248 10.256687 -16.248767 -4.029358 8.772949 67.090428 -3.684690 5.556462 -5.805735 15.487777 0.000359 -0.001384 0.000159
-15.189664 126.892403 15.519255 175.654121 -48.975356 -5.955956 3.010907 27.828465 4.451576 0.368906 5.057667 0.678281 0.603587 7.907187 1.070245 2.218240 22.561833 3.430414 5.058699 17.167845 -2.592660 6.041437 -7.478739 -3.959636 1.301970 1.777608 1.917242 3.725356 -10.682508 -16.311885 -132.399771 -71.499272 175.803180 16.860455 11.838130 3.067548 -10.336766 -1.357944 1.019519 -7.339880 -11.822349 12.944825 53.920158 -62.019116 -97.964490 -3.010180 -8.785309 2.338975 -16.826254 -9.087256 4.527362 8.823775 75.953264 24.352261 23.406587 -19.025819 15.606474 0.001387 -0.004194 0.000614 10.264824 -16.246111 -4.036333 8.759983 67.086816 -3.696731 5.556659 -5.811652 15.492677 0.000165 0.000056 0.000073
-15.189449 126.891087 15.519661 175.658740 -48.955331 -5.957380 3.008085 27.828732 4.455009 0.367445 5.048200 0.675903 0.605490 7.924247 1.075356 2.212800 22.561726 3.429759 5.104282 17.090654 -2.557875 6.082947 -7.562193 -3.933059 1.279217 1.725927 1.880696 3.735782 -10.503083 -16.380656 -132.574193 -71.414204 175.966556 16.973735 11.975385 3.203095 -10.339800 -1.399199 1.045128 -7.334134 -11.752862 13.039437 53.843392 -62.033825 -97.909893 -3.059686 -8.535526 2.122449 -16.832402 -9.103794 4.528218 8.803938 75.949903 24.334229 23.428437 -19.013211 15.602895 0.001906 -0.000642 0.000845 10.261807 -16.262141 -4.041924 8.763174 67.085565 -3.698738 5.551548 -5.820001 15.499884 0.000346 0.000350 0.000153
-15.188862 126.891386 15.518761 175.660483 -48.948560 -5.958833 3.006273 27.852044 4.461383 0.369633 5.027723 0.671727 0.605889 7.937046 1.078711 2.206315 22.569204 3.430147 5.129488 17.036000 -2.546076 6.151637 -7.676144 -3.889594 1.275883 1.688709 1.862262 3.746415 -10.327295 -16.470597 -132.763397 -71.329278 176.134207 17.091151 12.112193 3.329900 -10.338758 -1.442526 1.070398 -7.341892 -11.681074 13.139136 53.842280 -62.035283 -97.913602 -3.118977 -8.240279 1.900336 -16.836617 -9.106405 4.529397 8.806174 75.946011 24.336507 23.437027 -19.005442 15.598475 0.003677 0.000935 0.001629 10.260010 -16.264065 -4.043980 8.759188 67.082886 -3.707856 5.557687 -5.833047 15.509697 0.000814 -0.001001 0.000361
-15.188507 126.892055 15.517546 175.659071 -48.945677 -5.956878 3.007221 27.861179 4.461640 0.364809 5.032390 0.673109 0.605879 7.955478 1.080494 2.208211 22.553354 3.425309 5.196400 16.944240 -2.489628 6.190935 -7.745441 -3.862596 1.250895 1.637798 1.823794 3.772464 -10.119467 -16.531567 -132.954966 -71.244042 176.309145 17.215548 12.249474 3.447838 -10.338778 -1.504048 1.173156 -7.348044 -11.590222 13.163625 53.831641 -62.030289 -97.902882 -3.173486 -7.941790 1.667844 -16.837045 -9.108181 4.529038 8.818910 75.941313 24.348835 23.438343 -18.997398 15.595700 0.003919 -0.000357 0.001736 10.256254 -16.263636 -4.047059 8.770611 67.081704 -3.700106 5.552367 -5.836915 15.510988 -0.000267 -0.000642 -0.000118
-15.188809 126.891757 15.517084 175.656766 -48.936294 -5.951001 3.010131 27.863130 4.458354 0.363506 5.039992 0.674584 0.606089 7.947422 1.078991 2.207739 22.550759 3.425874 5.270117 16.856161 -2.429189 6.230032 -7.818082 -3.830169 1.229830 1.594961 1.785272 3.789856 -9.905038 -16.585646 -133.142206 -71.161937 176.489165 17.340374 12.380134 3.550423 -10.339178 -1.545907 1.242193 -7.371661 -11.504543 13.229360 53.805364 -62.014549 -97.876634 -3.222704 -7.652989 1.422002 -16.837039 -9.115791 4.531614 8.830789 75.937344 24.362912 23.400946 -19.012727 15.591501 -0.001360 -0.007637 -0.000603 10.249753 -16.271222 -4.050895 8.778497 67.081133 -3.702334 5.549578 -5.838217 15.513080 -0.000246 -0.000695 -0.000109
-15.187978 126.891451 15.516923 175.655787 -48.926690 -5.953243 3.017217 27.864917 4.464483 0.360908 5.034498 0.673233 0.609936 7.957545 1.081243 2.205142 22.542566 3.423901 5.334683 16.778195 -2.376235 6.284128 -7.913859 -3.790868 1.216726 1.551767 1.744197 3.798418 -9.689713 -16.632065 -133.328477 -71.090441 176.666435 17.452331 12.490906 3.636990 -10.341114 -1.582214 1.292142 -7.400918 -11.417934 13.322230 53.763905 -61.987825 -97.844075 -3.261363 -7.384033 1.165099 -16.833791 -9.122404 4.539411 8.803949 75.932266 24.343901 23.409106 -19.002890 15.586191 0.000852 -0.006416 0.000377 10.247941 -16.281114 -4.046305 8.768799 67.083665 -3.713335 5.538833 -5.839219 15.511664 -0.001494 -0.000630 -0.000662
-15.187963 126.891569 15.516250 175.661727 -48.920793 -5.955618 3.014356 27.872362 4.465728 0.366490 5.035381 0.671412 0.607205 7.966614 1.085319 2.210480 22.539290 3.420726 5.395168 16.682677 -2.319694 6.343708 -8.018182 -3.754446 1.188584 1.467956 1.679681 3.811459 -9.448689 -16.650561 -133.502065 -71.033354 176.826927 17.540741 12.569821 3.710564 -10.352300 -1.631623 1.338908 -7.424642 -11.326207 13.423942 53.694954 -61.944878 -97.802587 -3.283981 -7.139826 0.898914 -16.835101 -9.128413 4.537460 8.800468 75.938694 24.344143 23.427389 -18.995522 15.581149 0.005025 -0.004213 0.002226 10.244963 -16.284840 -4.052732 8.769215 67.082631 -3.710945 5.549917 -5.845661 15.512757 -0.000197 -0.001056 -0.000087
-15.187970 126.890695 15.516458 175.658389 -48.907875 -5.951169 3.013926 27.866286 4.464604 0.367986 5.043367 0.673411 0.605842 7.970900 1.086476 2.209591 22.542729 3.423097 5.464731 16.577887 -2.272841 6.407357 -8.131093 -3.719049 1.185541 1.436830 1.662283 3.819244 -9.262221 -16.728837 -133.699530 -70.919466 176.994906 17.597184 12.681330 3.812723 -10.356994 -1.685782 1.376225 -7.440352 -11.234796 13.528096 53.596070 -61.875839 -97.753619 -3.293311 -6.914260 0.625596 -16.832015 -9.140994 4.541899 8.793167 75.940147 24.338287 23.423540 -18.998481 15.578990 0.003709 -0.005262 0.001643 10.247561 -16.297367 -4.057546 8.768093 67.082650 -3.711175 5.552065 -5.846396 15.514572 0.000019 -0.000998 0.000008
-15.187378 126.890936 15.515800 175.654364 -48.903794 -5.949139 3.015537 27.869541 4.467157 0.366833 5.065465 0.678326 0.607832 7.957830 1.082763 2.210882 22.552377 3.425897 5.535918 16.460332 -2.225852 6.473136 -8.250090 -3.683628 1.172803 1.378395 1.618051 3.824296 -9.057377 -16.774421 -133.727303 -70.915752 177.030373 17.655756 12.683045 3.855158 -10.366229 -1.741533 1.420331 -7.448397 -11.144315 13.630513 53.478191 -61.782498 -97.706048 -3.294082 -6.696765 0.349994 -16.826572 -9.142504 4.546168 8.780111 75.938436 24.326979 23.428063 -18.994978 15.580373 0.004077 -0.003978 0.001806 10.248574 -16.300378 -4.056375 8.771543 67.081943 -3.708520 5.554383 -5.847975 15.516235 0.000477 -0.000878 0.000211
